%FSLAX45Y45*%
G04 Gerber Fmt 4.5, Leading zero omitted, Abs format (unit mm)*
G04 Created by KiCad (PCBNEW (5.1.9)-1) date 2021-09-29 15:50:40*
%MOMM*%
%LPD*%
G01*
G04 APERTURE LIST*
%TA.AperFunction,Profile*%
%ADD10C,0.100000*%
%TD*%
%ADD11C,0.200000*%
%ADD12C,0.300000*%
G04 APERTURE END LIST*
D10*
X8763000Y-10160000D02*
X6477000Y-10160000D01*
X8763000Y-13208000D02*
X8763000Y-10160000D01*
X6477000Y-13208000D02*
X8763000Y-13208000D01*
X6477000Y-10160000D02*
X6477000Y-13208000D01*
D11*
X6797500Y-10632500D02*
X7122500Y-10957500D01*
X7122500Y-10632500D02*
X6797500Y-10957500D01*
X8067500Y-10632500D02*
X8392500Y-10957500D01*
X8392500Y-10632500D02*
X8067500Y-10957500D01*
D12*
X6758428Y-13678714D02*
X6758428Y-13378714D01*
X6829857Y-13378714D01*
X6872714Y-13393000D01*
X6901286Y-13421571D01*
X6915571Y-13450143D01*
X6929857Y-13507286D01*
X6929857Y-13550143D01*
X6915571Y-13607286D01*
X6901286Y-13635857D01*
X6872714Y-13664429D01*
X6829857Y-13678714D01*
X6758428Y-13678714D01*
X7058428Y-13678714D02*
X7058428Y-13478714D01*
X7058428Y-13535857D02*
X7072714Y-13507286D01*
X7087000Y-13493000D01*
X7115571Y-13478714D01*
X7144143Y-13478714D01*
X7244143Y-13678714D02*
X7244143Y-13478714D01*
X7244143Y-13378714D02*
X7229857Y-13393000D01*
X7244143Y-13407286D01*
X7258428Y-13393000D01*
X7244143Y-13378714D01*
X7244143Y-13407286D01*
X7429857Y-13678714D02*
X7401286Y-13664429D01*
X7387000Y-13635857D01*
X7387000Y-13378714D01*
X7587000Y-13678714D02*
X7558428Y-13664429D01*
X7544143Y-13635857D01*
X7544143Y-13378714D01*
X7929857Y-13678714D02*
X7929857Y-13378714D01*
X8029857Y-13593000D01*
X8129857Y-13378714D01*
X8129857Y-13678714D01*
X8401286Y-13678714D02*
X8401286Y-13521571D01*
X8387000Y-13493000D01*
X8358428Y-13478714D01*
X8301286Y-13478714D01*
X8272714Y-13493000D01*
X8401286Y-13664429D02*
X8372714Y-13678714D01*
X8301286Y-13678714D01*
X8272714Y-13664429D01*
X8258428Y-13635857D01*
X8258428Y-13607286D01*
X8272714Y-13578714D01*
X8301286Y-13564429D01*
X8372714Y-13564429D01*
X8401286Y-13550143D01*
X8544143Y-13478714D02*
X8544143Y-13778714D01*
X8544143Y-13493000D02*
X8572714Y-13478714D01*
X8629857Y-13478714D01*
X8658428Y-13493000D01*
X8672714Y-13507286D01*
X8687000Y-13535857D01*
X8687000Y-13621571D01*
X8672714Y-13650143D01*
X8658428Y-13664429D01*
X8629857Y-13678714D01*
X8572714Y-13678714D01*
X8544143Y-13664429D01*
X8815571Y-13650143D02*
X8829857Y-13664429D01*
X8815571Y-13678714D01*
X8801286Y-13664429D01*
X8815571Y-13650143D01*
X8815571Y-13678714D01*
X8815571Y-13493000D02*
X8829857Y-13507286D01*
X8815571Y-13521571D01*
X8801286Y-13507286D01*
X8815571Y-13493000D01*
X8815571Y-13521571D01*
X6147000Y-14010500D02*
X6472000Y-14335500D01*
X6472000Y-14010500D02*
X6147000Y-14335500D01*
X6729857Y-14008714D02*
X6915571Y-14008714D01*
X6815571Y-14123000D01*
X6858428Y-14123000D01*
X6887000Y-14137286D01*
X6901286Y-14151571D01*
X6915571Y-14180143D01*
X6915571Y-14251571D01*
X6901286Y-14280143D01*
X6887000Y-14294429D01*
X6858428Y-14308714D01*
X6772714Y-14308714D01*
X6744143Y-14294429D01*
X6729857Y-14280143D01*
X7044143Y-14280143D02*
X7058428Y-14294429D01*
X7044143Y-14308714D01*
X7029857Y-14294429D01*
X7044143Y-14280143D01*
X7044143Y-14308714D01*
X7172714Y-14037286D02*
X7187000Y-14023000D01*
X7215571Y-14008714D01*
X7287000Y-14008714D01*
X7315571Y-14023000D01*
X7329857Y-14037286D01*
X7344143Y-14065857D01*
X7344143Y-14094429D01*
X7329857Y-14137286D01*
X7158428Y-14308714D01*
X7344143Y-14308714D01*
X7615571Y-14008714D02*
X7472714Y-14008714D01*
X7458428Y-14151571D01*
X7472714Y-14137286D01*
X7501286Y-14123000D01*
X7572714Y-14123000D01*
X7601286Y-14137286D01*
X7615571Y-14151571D01*
X7629857Y-14180143D01*
X7629857Y-14251571D01*
X7615571Y-14280143D01*
X7601286Y-14294429D01*
X7572714Y-14308714D01*
X7501286Y-14308714D01*
X7472714Y-14294429D01*
X7458428Y-14280143D01*
X7758428Y-14308714D02*
X7758428Y-14108714D01*
X7758428Y-14137286D02*
X7772714Y-14123000D01*
X7801286Y-14108714D01*
X7844143Y-14108714D01*
X7872714Y-14123000D01*
X7887000Y-14151571D01*
X7887000Y-14308714D01*
X7887000Y-14151571D02*
X7901286Y-14123000D01*
X7929857Y-14108714D01*
X7972714Y-14108714D01*
X8001286Y-14123000D01*
X8015571Y-14151571D01*
X8015571Y-14308714D01*
X8158428Y-14308714D02*
X8158428Y-14108714D01*
X8158428Y-14137286D02*
X8172714Y-14123000D01*
X8201286Y-14108714D01*
X8244143Y-14108714D01*
X8272714Y-14123000D01*
X8287000Y-14151571D01*
X8287000Y-14308714D01*
X8287000Y-14151571D02*
X8301286Y-14123000D01*
X8329857Y-14108714D01*
X8372714Y-14108714D01*
X8401286Y-14123000D01*
X8415571Y-14151571D01*
X8415571Y-14308714D01*
X9001286Y-13994429D02*
X8744143Y-14380143D01*
X9387000Y-14008714D02*
X9415571Y-14008714D01*
X9444143Y-14023000D01*
X9458428Y-14037286D01*
X9472714Y-14065857D01*
X9487000Y-14123000D01*
X9487000Y-14194429D01*
X9472714Y-14251571D01*
X9458428Y-14280143D01*
X9444143Y-14294429D01*
X9415571Y-14308714D01*
X9387000Y-14308714D01*
X9358428Y-14294429D01*
X9344143Y-14280143D01*
X9329857Y-14251571D01*
X9315571Y-14194429D01*
X9315571Y-14123000D01*
X9329857Y-14065857D01*
X9344143Y-14037286D01*
X9358428Y-14023000D01*
X9387000Y-14008714D01*
X9615571Y-14280143D02*
X9629857Y-14294429D01*
X9615571Y-14308714D01*
X9601286Y-14294429D01*
X9615571Y-14280143D01*
X9615571Y-14308714D01*
X9915571Y-14308714D02*
X9744143Y-14308714D01*
X9829857Y-14308714D02*
X9829857Y-14008714D01*
X9801286Y-14051571D01*
X9772714Y-14080143D01*
X9744143Y-14094429D01*
X10029857Y-14037286D02*
X10044143Y-14023000D01*
X10072714Y-14008714D01*
X10144143Y-14008714D01*
X10172714Y-14023000D01*
X10187000Y-14037286D01*
X10201286Y-14065857D01*
X10201286Y-14094429D01*
X10187000Y-14137286D01*
X10015571Y-14308714D01*
X10201286Y-14308714D01*
X10372714Y-14137286D02*
X10344143Y-14123000D01*
X10329857Y-14108714D01*
X10315571Y-14080143D01*
X10315571Y-14065857D01*
X10329857Y-14037286D01*
X10344143Y-14023000D01*
X10372714Y-14008714D01*
X10429857Y-14008714D01*
X10458428Y-14023000D01*
X10472714Y-14037286D01*
X10487000Y-14065857D01*
X10487000Y-14080143D01*
X10472714Y-14108714D01*
X10458428Y-14123000D01*
X10429857Y-14137286D01*
X10372714Y-14137286D01*
X10344143Y-14151571D01*
X10329857Y-14165857D01*
X10315571Y-14194429D01*
X10315571Y-14251571D01*
X10329857Y-14280143D01*
X10344143Y-14294429D01*
X10372714Y-14308714D01*
X10429857Y-14308714D01*
X10458428Y-14294429D01*
X10472714Y-14280143D01*
X10487000Y-14251571D01*
X10487000Y-14194429D01*
X10472714Y-14165857D01*
X10458428Y-14151571D01*
X10429857Y-14137286D01*
X10601286Y-14008714D02*
X10601286Y-14065857D01*
X10715571Y-14008714D02*
X10715571Y-14065857D01*
X11158428Y-14423000D02*
X11144143Y-14408714D01*
X11115571Y-14365857D01*
X11101286Y-14337286D01*
X11087000Y-14294429D01*
X11072714Y-14223000D01*
X11072714Y-14165857D01*
X11087000Y-14094429D01*
X11101286Y-14051571D01*
X11115571Y-14023000D01*
X11144143Y-13980143D01*
X11158428Y-13965857D01*
X11258428Y-14037286D02*
X11272714Y-14023000D01*
X11301286Y-14008714D01*
X11372714Y-14008714D01*
X11401286Y-14023000D01*
X11415571Y-14037286D01*
X11429857Y-14065857D01*
X11429857Y-14094429D01*
X11415571Y-14137286D01*
X11244143Y-14308714D01*
X11429857Y-14308714D01*
X11787000Y-14308714D02*
X11787000Y-14008714D01*
X11915571Y-14308714D02*
X11915571Y-14151571D01*
X11901286Y-14123000D01*
X11872714Y-14108714D01*
X11829857Y-14108714D01*
X11801286Y-14123000D01*
X11787000Y-14137286D01*
X12101286Y-14308714D02*
X12072714Y-14294429D01*
X12058428Y-14280143D01*
X12044143Y-14251571D01*
X12044143Y-14165857D01*
X12058428Y-14137286D01*
X12072714Y-14123000D01*
X12101286Y-14108714D01*
X12144143Y-14108714D01*
X12172714Y-14123000D01*
X12187000Y-14137286D01*
X12201286Y-14165857D01*
X12201286Y-14251571D01*
X12187000Y-14280143D01*
X12172714Y-14294429D01*
X12144143Y-14308714D01*
X12101286Y-14308714D01*
X12372714Y-14308714D02*
X12344143Y-14294429D01*
X12329857Y-14265857D01*
X12329857Y-14008714D01*
X12601286Y-14294429D02*
X12572714Y-14308714D01*
X12515571Y-14308714D01*
X12487000Y-14294429D01*
X12472714Y-14265857D01*
X12472714Y-14151571D01*
X12487000Y-14123000D01*
X12515571Y-14108714D01*
X12572714Y-14108714D01*
X12601286Y-14123000D01*
X12615571Y-14151571D01*
X12615571Y-14180143D01*
X12472714Y-14208714D01*
X12729857Y-14294429D02*
X12758428Y-14308714D01*
X12815571Y-14308714D01*
X12844143Y-14294429D01*
X12858428Y-14265857D01*
X12858428Y-14251571D01*
X12844143Y-14223000D01*
X12815571Y-14208714D01*
X12772714Y-14208714D01*
X12744143Y-14194429D01*
X12729857Y-14165857D01*
X12729857Y-14151571D01*
X12744143Y-14123000D01*
X12772714Y-14108714D01*
X12815571Y-14108714D01*
X12844143Y-14123000D01*
X12958428Y-14423000D02*
X12972714Y-14408714D01*
X13001286Y-14365857D01*
X13015571Y-14337286D01*
X13029857Y-14294429D01*
X13044143Y-14223000D01*
X13044143Y-14165857D01*
X13029857Y-14094429D01*
X13015571Y-14051571D01*
X13001286Y-14023000D01*
X12972714Y-13980143D01*
X12958428Y-13965857D01*
X13501286Y-14423000D02*
X13487000Y-14408714D01*
X13458428Y-14365857D01*
X13444143Y-14337286D01*
X13429857Y-14294429D01*
X13415571Y-14223000D01*
X13415571Y-14165857D01*
X13429857Y-14094429D01*
X13444143Y-14051571D01*
X13458428Y-14023000D01*
X13487000Y-13980143D01*
X13501286Y-13965857D01*
X13615571Y-14108714D02*
X13615571Y-14308714D01*
X13615571Y-14137286D02*
X13629857Y-14123000D01*
X13658428Y-14108714D01*
X13701286Y-14108714D01*
X13729857Y-14123000D01*
X13744143Y-14151571D01*
X13744143Y-14308714D01*
X13929857Y-14308714D02*
X13901286Y-14294429D01*
X13887000Y-14280143D01*
X13872714Y-14251571D01*
X13872714Y-14165857D01*
X13887000Y-14137286D01*
X13901286Y-14123000D01*
X13929857Y-14108714D01*
X13972714Y-14108714D01*
X14001286Y-14123000D01*
X14015571Y-14137286D01*
X14029857Y-14165857D01*
X14029857Y-14251571D01*
X14015571Y-14280143D01*
X14001286Y-14294429D01*
X13972714Y-14308714D01*
X13929857Y-14308714D01*
X14115571Y-14108714D02*
X14229857Y-14108714D01*
X14158428Y-14008714D02*
X14158428Y-14265857D01*
X14172714Y-14294429D01*
X14201286Y-14308714D01*
X14229857Y-14308714D01*
X14558428Y-14108714D02*
X14558428Y-14408714D01*
X14558428Y-14123000D02*
X14587000Y-14108714D01*
X14644143Y-14108714D01*
X14672714Y-14123000D01*
X14687000Y-14137286D01*
X14701286Y-14165857D01*
X14701286Y-14251571D01*
X14687000Y-14280143D01*
X14672714Y-14294429D01*
X14644143Y-14308714D01*
X14587000Y-14308714D01*
X14558428Y-14294429D01*
X14872714Y-14308714D02*
X14844143Y-14294429D01*
X14829857Y-14265857D01*
X14829857Y-14008714D01*
X15115571Y-14308714D02*
X15115571Y-14151571D01*
X15101286Y-14123000D01*
X15072714Y-14108714D01*
X15015571Y-14108714D01*
X14987000Y-14123000D01*
X15115571Y-14294429D02*
X15087000Y-14308714D01*
X15015571Y-14308714D01*
X14987000Y-14294429D01*
X14972714Y-14265857D01*
X14972714Y-14237286D01*
X14987000Y-14208714D01*
X15015571Y-14194429D01*
X15087000Y-14194429D01*
X15115571Y-14180143D01*
X15215571Y-14108714D02*
X15329857Y-14108714D01*
X15258428Y-14008714D02*
X15258428Y-14265857D01*
X15272714Y-14294429D01*
X15301286Y-14308714D01*
X15329857Y-14308714D01*
X15544143Y-14294429D02*
X15515571Y-14308714D01*
X15458428Y-14308714D01*
X15429857Y-14294429D01*
X15415571Y-14265857D01*
X15415571Y-14151571D01*
X15429857Y-14123000D01*
X15458428Y-14108714D01*
X15515571Y-14108714D01*
X15544143Y-14123000D01*
X15558428Y-14151571D01*
X15558428Y-14180143D01*
X15415571Y-14208714D01*
X15815571Y-14308714D02*
X15815571Y-14008714D01*
X15815571Y-14294429D02*
X15787000Y-14308714D01*
X15729857Y-14308714D01*
X15701286Y-14294429D01*
X15687000Y-14280143D01*
X15672714Y-14251571D01*
X15672714Y-14165857D01*
X15687000Y-14137286D01*
X15701286Y-14123000D01*
X15729857Y-14108714D01*
X15787000Y-14108714D01*
X15815571Y-14123000D01*
X15929857Y-14423000D02*
X15944143Y-14408714D01*
X15972714Y-14365857D01*
X15987000Y-14337286D01*
X16001286Y-14294429D01*
X16015571Y-14223000D01*
X16015571Y-14165857D01*
X16001286Y-14094429D01*
X15987000Y-14051571D01*
X15972714Y-14023000D01*
X15944143Y-13980143D01*
X15929857Y-13965857D01*
M02*
