G04 #@! TF.GenerationSoftware,KiCad,Pcbnew,(5.1.9)-1*
G04 #@! TF.CreationDate,2021-09-29T15:50:34-03:00*
G04 #@! TF.ProjectId,RJ45-breakout_1ch,524a3435-2d62-4726-9561-6b6f75745f31,rev?*
G04 #@! TF.SameCoordinates,Original*
G04 #@! TF.FileFunction,Legend,Top*
G04 #@! TF.FilePolarity,Positive*
%FSLAX46Y46*%
G04 Gerber Fmt 4.6, Leading zero omitted, Abs format (unit mm)*
G04 Created by KiCad (PCBNEW (5.1.9)-1) date 2021-09-29 15:50:34*
%MOMM*%
%LPD*%
G01*
G04 APERTURE LIST*
%ADD10C,0.200000*%
%ADD11C,0.120000*%
%ADD12C,0.150000*%
G04 APERTURE END LIST*
D10*
X85067857Y-114894761D02*
X85067857Y-114323333D01*
X86267857Y-114609047D02*
X85067857Y-114609047D01*
X86267857Y-113418571D02*
X85696428Y-113751904D01*
X86267857Y-113990000D02*
X85067857Y-113990000D01*
X85067857Y-113609047D01*
X85125000Y-113513809D01*
X85182142Y-113466190D01*
X85296428Y-113418571D01*
X85467857Y-113418571D01*
X85582142Y-113466190D01*
X85639285Y-113513809D01*
X85696428Y-113609047D01*
X85696428Y-113990000D01*
X85925000Y-113037619D02*
X85925000Y-112561428D01*
X86267857Y-113132857D02*
X85067857Y-112799523D01*
X86267857Y-112466190D01*
X86267857Y-112132857D02*
X85067857Y-112132857D01*
X85925000Y-111799523D01*
X85067857Y-111466190D01*
X86267857Y-111466190D01*
X85067857Y-110799523D02*
X85067857Y-110609047D01*
X85125000Y-110513809D01*
X85239285Y-110418571D01*
X85467857Y-110370952D01*
X85867857Y-110370952D01*
X86096428Y-110418571D01*
X86210714Y-110513809D01*
X86267857Y-110609047D01*
X86267857Y-110799523D01*
X86210714Y-110894761D01*
X86096428Y-110990000D01*
X85867857Y-111037619D01*
X85467857Y-111037619D01*
X85239285Y-110990000D01*
X85125000Y-110894761D01*
X85067857Y-110799523D01*
X86267857Y-109942380D02*
X85067857Y-109942380D01*
X86267857Y-109370952D01*
X85067857Y-109370952D01*
X85067857Y-109037619D02*
X85067857Y-108466190D01*
X86267857Y-108751904D02*
X85067857Y-108751904D01*
X86267857Y-108132857D02*
X85067857Y-108132857D01*
X86267857Y-107656666D02*
X85067857Y-107656666D01*
X86267857Y-107085238D01*
X85067857Y-107085238D01*
X85925000Y-106656666D02*
X85925000Y-106180476D01*
X86267857Y-106751904D02*
X85067857Y-106418571D01*
X86267857Y-106085238D01*
X67217857Y-116378809D02*
X67217857Y-116950238D01*
X67217857Y-116664523D02*
X66017857Y-116664523D01*
X66189285Y-116759761D01*
X66303571Y-116855000D01*
X66360714Y-116950238D01*
X67217857Y-116045476D02*
X66417857Y-115521666D01*
X66417857Y-116045476D02*
X67217857Y-115521666D01*
X67217857Y-113807380D02*
X66646428Y-114140714D01*
X67217857Y-114378809D02*
X66017857Y-114378809D01*
X66017857Y-113997857D01*
X66075000Y-113902619D01*
X66132142Y-113855000D01*
X66246428Y-113807380D01*
X66417857Y-113807380D01*
X66532142Y-113855000D01*
X66589285Y-113902619D01*
X66646428Y-113997857D01*
X66646428Y-114378809D01*
X66017857Y-113093095D02*
X66875000Y-113093095D01*
X67046428Y-113140714D01*
X67160714Y-113235952D01*
X67217857Y-113378809D01*
X67217857Y-113474047D01*
X66417857Y-112188333D02*
X67217857Y-112188333D01*
X65960714Y-112426428D02*
X66817857Y-112664523D01*
X66817857Y-112045476D01*
X66017857Y-111188333D02*
X66017857Y-111664523D01*
X66589285Y-111712142D01*
X66532142Y-111664523D01*
X66475000Y-111569285D01*
X66475000Y-111331190D01*
X66532142Y-111235952D01*
X66589285Y-111188333D01*
X66703571Y-111140714D01*
X66989285Y-111140714D01*
X67103571Y-111188333D01*
X67160714Y-111235952D01*
X67217857Y-111331190D01*
X67217857Y-111569285D01*
X67160714Y-111664523D01*
X67103571Y-111712142D01*
X66589285Y-109616904D02*
X66646428Y-109474047D01*
X66703571Y-109426428D01*
X66817857Y-109378809D01*
X66989285Y-109378809D01*
X67103571Y-109426428D01*
X67160714Y-109474047D01*
X67217857Y-109569285D01*
X67217857Y-109950238D01*
X66017857Y-109950238D01*
X66017857Y-109616904D01*
X66075000Y-109521666D01*
X66132142Y-109474047D01*
X66246428Y-109426428D01*
X66360714Y-109426428D01*
X66475000Y-109474047D01*
X66532142Y-109521666D01*
X66589285Y-109616904D01*
X66589285Y-109950238D01*
X67217857Y-108378809D02*
X66646428Y-108712142D01*
X67217857Y-108950238D02*
X66017857Y-108950238D01*
X66017857Y-108569285D01*
X66075000Y-108474047D01*
X66132142Y-108426428D01*
X66246428Y-108378809D01*
X66417857Y-108378809D01*
X66532142Y-108426428D01*
X66589285Y-108474047D01*
X66646428Y-108569285D01*
X66646428Y-108950238D01*
X66589285Y-107950238D02*
X66589285Y-107616904D01*
X67217857Y-107474047D02*
X67217857Y-107950238D01*
X66017857Y-107950238D01*
X66017857Y-107474047D01*
X66875000Y-107093095D02*
X66875000Y-106616904D01*
X67217857Y-107188333D02*
X66017857Y-106855000D01*
X67217857Y-106521666D01*
X67217857Y-106188333D02*
X66017857Y-106188333D01*
X67217857Y-105616904D02*
X66532142Y-106045476D01*
X66017857Y-105616904D02*
X66703571Y-106188333D01*
X66017857Y-104997857D02*
X66017857Y-104807380D01*
X66075000Y-104712142D01*
X66189285Y-104616904D01*
X66417857Y-104569285D01*
X66817857Y-104569285D01*
X67046428Y-104616904D01*
X67160714Y-104712142D01*
X67217857Y-104807380D01*
X67217857Y-104997857D01*
X67160714Y-105093095D01*
X67046428Y-105188333D01*
X66817857Y-105235952D01*
X66417857Y-105235952D01*
X66189285Y-105188333D01*
X66075000Y-105093095D01*
X66017857Y-104997857D01*
X66017857Y-104140714D02*
X66989285Y-104140714D01*
X67103571Y-104093095D01*
X67160714Y-104045476D01*
X67217857Y-103950238D01*
X67217857Y-103759761D01*
X67160714Y-103664523D01*
X67103571Y-103616904D01*
X66989285Y-103569285D01*
X66017857Y-103569285D01*
X66017857Y-103235952D02*
X66017857Y-102664523D01*
X67217857Y-102950238D02*
X66017857Y-102950238D01*
D11*
G04 #@! TO.C,J1*
X67630000Y-102380000D02*
X84270000Y-102380000D01*
X67630000Y-118350000D02*
X84315000Y-118350000D01*
X67585000Y-118350000D02*
X67630000Y-102380000D01*
X84315000Y-118350000D02*
X84270000Y-102380000D01*
X67390000Y-109790000D02*
X66890000Y-110290000D01*
X66890000Y-110290000D02*
X66890000Y-109290000D01*
X66890000Y-109290000D02*
X67390000Y-109790000D01*
G04 #@! TO.C,J2*
X65740000Y-131330000D02*
X66240000Y-131330000D01*
X65740000Y-130590000D02*
X65740000Y-131330000D01*
X82562000Y-126722000D02*
X82167000Y-127118000D01*
X85208000Y-124076000D02*
X84828000Y-124456000D01*
X82813000Y-127004000D02*
X82433000Y-127384000D01*
X85474000Y-124342000D02*
X85079000Y-124738000D01*
X77482000Y-126722000D02*
X77087000Y-127118000D01*
X80128000Y-124076000D02*
X79748000Y-124456000D01*
X77733000Y-127004000D02*
X77353000Y-127384000D01*
X80394000Y-124342000D02*
X79999000Y-124738000D01*
X72402000Y-126722000D02*
X72007000Y-127118000D01*
X75048000Y-124076000D02*
X74668000Y-124456000D01*
X72653000Y-127004000D02*
X72273000Y-127384000D01*
X75314000Y-124342000D02*
X74919000Y-124738000D01*
X67032000Y-127011000D02*
X66926000Y-127118000D01*
X69968000Y-124076000D02*
X69861000Y-124183000D01*
X67298000Y-127277000D02*
X67192000Y-127384000D01*
X70234000Y-124342000D02*
X70127000Y-124449000D01*
X86420000Y-119770000D02*
X86420000Y-131090000D01*
X65980000Y-119770000D02*
X65980000Y-131090000D01*
X65980000Y-131090000D02*
X86420000Y-131090000D01*
X65980000Y-119770000D02*
X86420000Y-119770000D01*
X65980000Y-121830000D02*
X86420000Y-121830000D01*
X65980000Y-128030000D02*
X86420000Y-128030000D01*
X65980000Y-130530000D02*
X86420000Y-130530000D01*
X86000000Y-125730000D02*
G75*
G03*
X86000000Y-125730000I-2180000J0D01*
G01*
X80920000Y-125730000D02*
G75*
G03*
X80920000Y-125730000I-2180000J0D01*
G01*
X75840000Y-125730000D02*
G75*
G03*
X75840000Y-125730000I-2180000J0D01*
G01*
X70760000Y-125730000D02*
G75*
G03*
X70760000Y-125730000I-2180000J0D01*
G01*
G04 #@! TO.C,J1*
D12*
X85391666Y-102957380D02*
X85391666Y-103671666D01*
X85344047Y-103814523D01*
X85248809Y-103909761D01*
X85105952Y-103957380D01*
X85010714Y-103957380D01*
X86391666Y-103957380D02*
X85820238Y-103957380D01*
X86105952Y-103957380D02*
X86105952Y-102957380D01*
X86010714Y-103100238D01*
X85915476Y-103195476D01*
X85820238Y-103243095D01*
G04 #@! TO.C,J2*
X66341666Y-118197380D02*
X66341666Y-118911666D01*
X66294047Y-119054523D01*
X66198809Y-119149761D01*
X66055952Y-119197380D01*
X65960714Y-119197380D01*
X66770238Y-118292619D02*
X66817857Y-118245000D01*
X66913095Y-118197380D01*
X67151190Y-118197380D01*
X67246428Y-118245000D01*
X67294047Y-118292619D01*
X67341666Y-118387857D01*
X67341666Y-118483095D01*
X67294047Y-118625952D01*
X66722619Y-119197380D01*
X67341666Y-119197380D01*
G04 #@! TD*
M02*
