G04 #@! TF.GenerationSoftware,KiCad,Pcbnew,(5.1.9)-1*
G04 #@! TF.CreationDate,2021-09-29T15:50:34-03:00*
G04 #@! TF.ProjectId,RJ45-breakout_1ch,524a3435-2d62-4726-9561-6b6f75745f31,rev?*
G04 #@! TF.SameCoordinates,Original*
G04 #@! TF.FileFunction,Copper,L1,Top*
G04 #@! TF.FilePolarity,Positive*
%FSLAX46Y46*%
G04 Gerber Fmt 4.6, Leading zero omitted, Abs format (unit mm)*
G04 Created by KiCad (PCBNEW (5.1.9)-1) date 2021-09-29 15:50:34*
%MOMM*%
%LPD*%
G01*
G04 APERTURE LIST*
G04 #@! TA.AperFunction,ComponentPad*
%ADD10C,1.500000*%
G04 #@! TD*
G04 #@! TA.AperFunction,ComponentPad*
%ADD11R,3.500000X3.500000*%
G04 #@! TD*
G04 #@! TA.AperFunction,ComponentPad*
%ADD12C,3.500000*%
G04 #@! TD*
G04 #@! TA.AperFunction,Conductor*
%ADD13C,1.524000*%
G04 #@! TD*
G04 #@! TA.AperFunction,Conductor*
%ADD14C,1.016000*%
G04 #@! TD*
G04 APERTURE END LIST*
G04 #@! TO.P,J1,1*
G04 #@! TO.N,Net-(J1-Pad1)*
G04 #@! TA.AperFunction,ComponentPad*
G36*
G01*
X71640000Y-110865000D02*
X71640000Y-110115000D01*
G75*
G02*
X72015000Y-109740000I375000J0D01*
G01*
X72765000Y-109740000D01*
G75*
G02*
X73140000Y-110115000I0J-375000D01*
G01*
X73140000Y-110865000D01*
G75*
G02*
X72765000Y-111240000I-375000J0D01*
G01*
X72015000Y-111240000D01*
G75*
G02*
X71640000Y-110865000I0J375000D01*
G01*
G37*
G04 #@! TD.AperFunction*
D10*
G04 #@! TO.P,J1,3*
G04 #@! TO.N,Net-(J1-Pad3)*
X74422000Y-110490000D03*
G04 #@! TO.P,J1,5*
G04 #@! TO.N,Net-(J1-Pad4)*
X76454000Y-110490000D03*
G04 #@! TO.P,J1,7*
G04 #@! TO.N,Net-(J1-Pad7)*
X78486000Y-110490000D03*
G04 #@! TO.P,J1,2*
G04 #@! TO.N,Net-(J1-Pad1)*
X73406000Y-112270000D03*
G04 #@! TO.P,J1,4*
G04 #@! TO.N,Net-(J1-Pad4)*
X75438000Y-112270000D03*
G04 #@! TO.P,J1,6*
G04 #@! TO.N,Net-(J1-Pad3)*
X77470000Y-112270000D03*
G04 #@! TO.P,J1,8*
G04 #@! TO.N,Net-(J1-Pad7)*
X79502000Y-112270000D03*
G04 #@! TD*
D11*
G04 #@! TO.P,J2,1*
G04 #@! TO.N,Net-(J1-Pad1)*
X68580000Y-125730000D03*
D12*
G04 #@! TO.P,J2,2*
G04 #@! TO.N,Net-(J1-Pad3)*
X73660000Y-125730000D03*
G04 #@! TO.P,J2,3*
G04 #@! TO.N,Net-(J1-Pad4)*
X78740000Y-125730000D03*
G04 #@! TO.P,J2,4*
G04 #@! TO.N,Net-(J1-Pad7)*
X83820000Y-125730000D03*
G04 #@! TD*
D13*
G04 #@! TO.N,Net-(J1-Pad3)*
X73660000Y-120650000D02*
X77470000Y-116840000D01*
X73660000Y-125730000D02*
X73660000Y-120650000D01*
X77470000Y-114300000D02*
X77470000Y-112270000D01*
X77470000Y-116840000D02*
X77470000Y-114300000D01*
X80645000Y-114935000D02*
X77470000Y-114935000D01*
X81915000Y-113665000D02*
X80645000Y-114935000D01*
X81915000Y-111305318D02*
X81915000Y-113665000D01*
X75565000Y-107950000D02*
X78559682Y-107950000D01*
X78559682Y-107950000D02*
X81915000Y-111305318D01*
X74422000Y-109093000D02*
X75565000Y-107950000D01*
X74422000Y-110490000D02*
X74422000Y-109093000D01*
D14*
G04 #@! TO.N,Net-(J1-Pad4)*
X75934001Y-111009999D02*
X76454000Y-110490000D01*
X75934001Y-111773999D02*
X75934001Y-111009999D01*
X75438000Y-112270000D02*
X75934001Y-111773999D01*
G04 #@! TD*
M02*
